<svg xmlns="http://www.w3.org/2000/svg" xmlns:xlink="http://www.w3.org/1999/xlink" width="100%" height="100%" viewBox="0 0 1024 1024" preserveAspectRatio="xMidYMid meet" ><rect id="svgEditorBackground" x="0" y="0" width="1024" height="1024" style="fill: none; stroke: none;"/><defs id="svgEditorDefs"><polygon id="svgEditorIconDefs" style="fill:rosybrown;"/><polygon id="svgEditorShapeDefs" style="fill:url(#lgrd2-black-white);stroke:olive;vector-effect:non-scaling-stroke;stroke-width:1px;fill-opacity:0.3;stroke-opacity:0.2;"/><linearGradient gradientUnits="objectBoundingBox" id="lrgd2-e1-repeat" spreadMethod="repeat" x1="20%" x2="40%" y1="0%" y2="0%"><stop offset="0%" stop-color="lightblue"/><stop offset="100%" stop-color="#ef5b2b"/></linearGradient><linearGradient gradientTransform="rotate(90)" gradientUnits="objectBoundingBox" id="lgrd2-d-reflect" spreadMethod="reflect" x1="0%" x2="5%" y1="0%" y2="5%"><stop offset="0%" stop-color="#e20709" stop-opacity="0.8"/><stop offset="5%" stop-color="#9ad346" stop-opacity="1"/></linearGradient><linearGradient id="lgrd3-fr-v" x1="0" x2="0" y1="0" y2="100%"><stop offset="0%" stop-color="blue"/><stop offset="50%" stop-color="black" stop-opacity="0"/><stop offset="100%" stop-color="red"/></linearGradient><linearGradient gradientUnits="objectBoundingBox" id="lgrd6-arc" spreadMethod="pad" x1="0.52" x2="0.55" y1="1" y2="0"><stop offset="0.11" style="stop-color:red;stop-opacity:1;"/><stop offset="0.265" style="stop-color:rgb(255, 140, 0);stop-opacity:0.735;"/><stop offset="0.54" stop-color="yellow"/><stop offset="0.7" stop-color="rgb(50, 205, 50)"/><stop offset="0.79" stop-color="#0071FF" stop-opacity="0.605"/><stop offset="1" stop-color="rgb(148, 0, 211)"/></linearGradient><radialGradient cx="50%" cy="50%" fx="50%" fy="50%" gradientUnits="objectBoundingBox" id="rgrd2-b" r="5%" spreadMethod="repeat"><stop offset="5%" stop-color="red" stop-opacity="1"/><stop offset="95%" stop-color="yellow" stop-opacity="1"/></radialGradient><radialGradient cx="50%" cy="50%" fx="50%" fy="50%" id="rgrd2-white-blue" r="50%"><stop offset="0%" style="stop-color:white;stop-opacity:0"/><stop offset="100%" style="stop-color:blue;stop-opacity:1"/></radialGradient><radialGradient gradientUnits="objectBoundingBox" id="rgrd3-c" x1="0" x2="100%" y1="0" y2="100%"><stop offset="0%" stop-color="#3e3168"/><stop offset="60%" stop-color="#7363a5"/><stop offset="90%" stop-color="#8979ba"/></radialGradient><radialGradient gradientUnits="objectBoundingBox" id="rgrd-wave" r="5%" spreadMethod="reflect"><stop offset="0%" stop-color="navy" stop-opacity="1.00"/><stop offset="20%" stop-color="navy" stop-opacity="0.90"/><stop offset="40%" stop-color="navy" stop-opacity="0.65"/><stop offset="60%" stop-color="navy" stop-opacity="0.35"/><stop offset="80%" stop-color="navy" stop-opacity="0.10"/><stop offset="100%" stop-color="navy" stop-opacity="0.00"/></radialGradient><linearGradient gradientUnits="objectBoundingBox" id="lgrd2-black-white" spreadMethod="pad" x1="0%" x2="100%" y1="0%" y2="100%"><stop offset="0%" stop-color="black"/><stop offset="100%" stop-color="white"/></linearGradient><linearGradient gradientTransform="rotate(90)" gradientUnits="objectBoundingBox" id="lgrd4-a" spreadMethod="repeat" x1="0%" x2="15%" y1="0%" y2="5%"><stop offset="5%" stop-color="#e20709" stop-opacity="0.8"/><stop offset="30%" stop-color="#9ad346" stop-opacity="1"/><stop offset="60%" stop-color="#bcd346" stop-opacity="0.8"/><stop offset="90%" stop-color="#e20709" stop-opacity="0.8"/></linearGradient><linearGradient gradientUnits="objectBoundingBox" id="lrgd2-e1-50-reflect" spreadMethod="reflect" x1="0%" x2="50%" y1="0%" y2="0%"><stop offset="0%" stop-color="lightblue"/><stop offset="100%" stop-color="#ef5b2b"/></linearGradient><linearGradient gradientUnits="objectBoundingBox" id="lgrd2-peachpuff-sienna-v" spreadMethod="pad" x1="0%" x2="0%" y1="0%" y2="100%"><stop offset="0%" style="stop-color:peachpuff;  stop-opacity:0.84;"/><stop offset="100%" style="stop-color:sienna;  stop-opacity:1"/></linearGradient><linearGradient gradientUnits="objectBoundingBox" id="lgrd2-peachpuff-sienna-h" spreadMethod="pad" x1="0%" x2="100%" y1="0%" y2="0%"><stop offset="0%" style="stop-color:peachpuff;  stop-opacity:1;"/><stop offset="100%" style="stop-color:sienna;  stop-opacity:1"/></linearGradient><path id="svgEditorClosePathDefs" style="stroke:url(#hatch-black-dash-120);stroke-width:3px;fill:rosybrown;"/><pattern height="10" id="hatch-black-dash-120" patternTransform="rotate(120) scale(0.4)" patternUnits="userSpaceOnUse" viewBox="0 0 24 10" width="24" x="0" y="0"><line style="stroke:black;stroke-width:1px;stroke-dasharray:4,4;" x1="0" x2="24" y1="5" y2="5"/></pattern></defs><g style="fill:url(#lgrd2-black-white); stroke:olive; vector-effect:non-scaling-stroke;stroke-width:1px;fill-opacity:0.3;stroke-opacity:0.2;" id="e3_shape" transform="matrix(-3.74325 0 0 -3.74325 750.797 748.889)"><path d="M85.4,91.4l-26.7,7.1l-7.6,28.2c4.1,0.8,8.4,1.3,12.8,1.3c16.2,0,30.9,-6,42.2,-15.9l-20.7,-20.7Z"/><path d="M124.7,43.7c-6.4,-19,-21.4,-34.1,-40.4,-40.4l-7.6,28.5l19.5,19.5l28.6,-7.7Z"/><path d="M0,64c0,4.4,0.4,8.6,1.3,12.8l28.2-7.5l7.1-26.7l-20.7-20.7c-9.9,11.3-15.9,26-15.9,42.2Z"/><path d="M98.2,59.1l-7.1,26.7l20.8,20.8c10.1,-11.3,16.2,-26.2,16.2,-42.5c0,-4.3,-0.4,-8.5,-1.2,-12.6l-28.6,7.7Z"/><path d="M3.4,84.5c6.4,18.9,21.3,33.8,40.1,40.1l7.5,-28.2l-19.5,-19.5l-28.1,7.5Z"/><path d="M21.5,16.2l20.7,20.7l26.7,-7.1l7.6,-28.5c-4.1,-0.8,-8.3,-1.2,-12.5,-1.2c-16.3,0,-31.2,6.1,-42.5,16.2Z"/></g><text style="fill:#4D4D4D;font-family:Verdana;font-size:40px;" x="464.559" y="471.72" id="e7_texte" transform="matrix(5.15586 0 0 5.15586 -1957.65 -1849.6)">K</text></svg>
