<svg version="1.0" xmlns="http://www.w3.org/2000/svg" width="700.000000pt" height="700.000000pt" viewBox="0 0 700.000000 700.000000" preserveAspectRatio="xMidYMid meet">
<metadata>
Created by potrace 1.12, written by Peter Selinger 2001-2015
</metadata>
<g transform="translate(0.000000,700.000000) scale(0.100000,-0.100000)" fill="#000000" stroke="none">
<path d="M2160 5401 c-52 -11 -87 -38 -110 -85 -20 -43 -20 -43 -18 -1839 l3
-1796 21 -28 c12 -15 36 -37 55 -48 32 -19 52 -20 379 -20 329 0 347 1 380 20
19 12 43 36 55 55 19 34 20 53 23 558 l3 522 47 0 c120 -1 288 -58 391 -134
112 -84 146 -130 396 -540 293 -481 310 -491 847 -484 286 4 307 7 329 59 26
64 4 128 -96 289 -29 47 -128 207 -220 355 -92 149 -188 301 -214 339 -60 90
-199 236 -276 291 -57 40 -172 105 -187 105 -4 0 -19 5 -35 11 -27 10 -25 11
57 43 105 39 205 104 293 190 107 104 156 187 322 541 18 39 61 129 95 200
127 266 140 296 151 343 15 68 5 109 -34 132 -30 19 -52 20 -343 20 -345 0
-371 -4 -476 -71 -85 -55 -123 -113 -243 -374 -18 -38 -60 -128 -94 -199 -33
-70 -61 -130 -61 -131 0 -2 -17 -32 -37 -67 -112 -192 -303 -300 -548 -310
l-60 -2 -5 975 -5 974 -22 35 c-12 19 -37 44 -55 55 -31 19 -52 20 -353 22
-176 1 -336 -2 -355 -6z"></path>
</g>
</svg>
