<svg xmlns="http://www.w3.org/2000/svg" width="512" height="512" viewBox="0 0 512 512" fill="none"  xmlns:xlink="http://www.w3.org/1999/xlink"><rect id="svgEditorBackground" x="0" y="0" width="512" height="512" style="fill: none; stroke: none;"/><defs id="svgEditorDefs"><path id="svgEditorClosePathDefs" style="stroke:black;stroke-width:1px;fill:rosybrown;"/><linearGradient gradientUnits="objectBoundingBox" id="lgrd2-black-white" spreadMethod="pad" x1="0%" x2="100%" y1="0%" y2="100%"><stop offset="0%" stop-color="black"/><stop offset="100%" stop-color="white"/></linearGradient><linearGradient id="lgrd3-fr-h"><stop offset="0%" stop-color="blue"/><stop offset="50%" stop-color="black" stop-opacity="0"/><stop offset="100%" stop-color="red"/></linearGradient><pattern height="10" id="hatch-blue-120" patternTransform="rotate(120) scale(0.4)" patternUnits="userSpaceOnUse" viewBox="0 0 10 10" width="10" x="0" y="0"><line style="stroke:blue;stroke-width:1px;" x1="0" x2="10" y1="5" y2="5"/></pattern><pattern height="10" id="hatch-blue-dash-120" patternTransform="rotate(120) scale(0.4)" patternUnits="userSpaceOnUse" viewBox="0 0 24 10" width="24" x="0" y="0"><line style="stroke:blue;stroke-width:1px;stroke-dasharray:4,4;" x1="0" x2="24" y1="5" y2="5"/></pattern><pattern height="10" id="wheel-darkblue-usr" patternUnits="userSpaceOnUse" viewBox="-20 -20 168 168" width="10" x="0" y="0"><path d="M3.8,80h12.3c1.5,0,2.9,0.9,3.5,2.4c0,0,0,0,0,0c0.6,1.4,0.3,3-0.8,4.1l-8.7,8.7c-1.5,1.5-1.5,3.9,0,5.4l17.3,17.3c1.5,1.5,3.9,1.5,5.4,0l8.7-8.7c1.1-1.1,2.7-1.4,4.1-0.8c0,0,0,0,0,0c1.4,0.6,2.4,2,2.4,3.5v12.3c0,2.1,1.7,3.8,3.8,3.8h24.4c2.1,0,3.8-1.7,3.8-3.8v-12.3c0-1.5,0.9-2.9,2.4-3.5c0,0,0,0,0,0c1.4-0.6,3-0.3,4.1,0.8l8.7,8.7c1.5,1.5,3.9,1.5,5.4,0l17.3-17.3c1.5-1.5,1.5-3.9,0-5.4l-8.7-8.7c-1.1-1.1-1.4-2.7-0.8-4.1c0,0,0,0,0,0c0.6-1.4,2-2.4,3.5-2.4h12.3c2.1,0,3.8-1.7,3.8-3.8v-24.4c0-2.1-1.7-3.8-3.8-3.8h-12.3c-1.5,0-2.9-0.9-3.5-2.4c0,0,0,0,0,0c-0.6-1.4-0.3-3,0.8-4.1l8.7-8.7c1.5-1.5,1.5-3.9,0-5.4l-17.3-17.3c-1.5-1.5-3.9-1.5-5.4,0l-8.7,8.7c-1.1,1.1-2.7,1.4-4.1,0.8c0,0,0,0,0,0c-1.4-0.6-2.4-2-2.4-3.5v-12.3c0-2.1-1.7-3.8-3.8-3.8h-24.4c-2.1,0-3.8,1.7-3.8,3.8v12.3c0,1.5-0.9,2.9-2.4,3.5c0,0,0,0,0,0c-1.4,0.6-3,0.3-4.1-0.8l-8.7-8.7c-1.5-1.5-3.9-1.5-5.4,0l-17.3,17.3c-1.5,1.5-1.5,3.9,0,5.4l8.7,8.7c1.1,1.1,1.4,2.7,0.8,4.1c0,0,0,0,0,0c-0.6,1.4-2,2.4-3.5,2.4h-12.3c-2.1,0-3.8,1.7-3.8,3.8v24.4c0,2.1,1.7,3.8,3.8,3.8ZM64,32c17.7,0,32,14.3,32,32s-14.3,32-32,32s-32-14.3-32-32s14.3-32,32-32Z" style="fill:darkblue;stroke:none;"/><path d="M72,64c0,4.4-3.6,8-8,8s-8-3.6-8-8c0-4.4,3.6-8,8-8s8,3.6,8,8Z" style="fill:darkblue;stroke:none;"/></pattern><pattern height="100%" id="ellipse-center" patternContentUnits="objectBoundingBox" patternUnits="objectBoundingBox" preserveAspectRatio="xMinYMin meet" width="100%" x="0%" y="0%"><circle cx="0.5" cy="0.5" r="0.5" style="fill:navy;fill-opacity:0.1;stroke:none;"/><circle cx="0.5" cy="0.5" r="0.4" style="fill:navy;fill-opacity:0.2;stroke:none;"/><circle cx="0.5" cy="0.5" r="0.3" style="fill:navy;fill-opacity:0.4;stroke:none;"/><circle cx="0.5" cy="0.5" r="0.2" style="fill:navy;fill-opacity:0.6;stroke:none;"/><circle cx="0.5" cy="0.5" r="0.1" style="fill:navy;fill-opacity:1;stroke:none;"/></pattern><pattern height="16" id="screw-20-16" patternContentUnits="userSpaceOnUse" patternUnits="userSpaceOnUse" preserveAspectRatio="xMinYMin meet" viewBox="0 0 20 16" width="20" x="0" y="0"><rect height="16" style="fill:#DFDBE5;stroke:none;" width="20" x="0" y="0"/><path d="M0,0C2.6,0.2,5,1.1,7,2.5A13.9,13.9,0,0,1,15,0h4c0.3,0,0.7,0,1,0v2A12,12,0,0,0,7.2,12h5.1A7,7,0,0,1,20,7.1V14a5,5,0,0,0,-3-4.6A5,5,0,0,0,14,14H0V7.1c0.9,0.1,1.7,0.4,2.4,0.8c0.8-1.5,1.8-2.9,3-4.1C3.8,2.8,2,2.2,0,2v-2Z" fill-rule="evenodd" style="fill:#9C92AC;fill-opacity:0.4;"/></pattern><pattern height="12" id="charlie-p" patternContentUnits="userSpaceOnUse" patternUnits="userSpaceOnUse" preserveAspectRatio="xMinYMin meet" viewBox="0 0 20 12" width="20" x="0" y="0"><rect height="12" style="fill:#DFDBE5;stroke:none;" width="20" x="0" y="0"/><path d="M9.8 12L0 2.2V.8l10 10 10-10v1.4L10.2 12h-.4zm-4 0L0 6.2V4.8L7.2 12H5.8zm8.4 0L20 6.2V4.8L12.8 12h1.4zM9.8 0l.2.2.2-.2h-.4zm-4 0L10 4.2 14.2 0h-1.4L10 2.8 7.2 0H5.8z" style="fill:#9C92AC;fill-opacity:0.4;"/></pattern><pattern height="40" id="parquet-p" patternContentUnits="userSpaceOnUse" patternUnits="userSpaceOnUse" preserveAspectRatio="xMinYMin meet" viewBox="0 0 40 40" width="40" x="0" y="0"><rect height="40" style="fill:#DFDBE5;stroke:none;" width="40" x="0" y="0"/><path d="M20 20.5V18H0v-2h20v-2H0v-2h20v-2H0V8h20V6H0V4h20V2H0V0h22v20h2V0h2v20h2V0h2v20h2V0h2v20h2V0h2v20h2v2H20v-1.5zM0 20h2v20H0V20zm4 0h2v20H4V20zm4 0h2v20H8V20zm4 0h2v20h-2V20zm4 0h2v20h-2V20zm4 4h20v2H20v-2zm0 4h20v2H20v-2zm0 4h20v2H20v-2zm0 4h20v2H20v-2z" fill-rule="evenodd" style="fill:#9C92AC;fill-opacity:0.4;"/></pattern><pattern height="10" id="star-navy-usr" patternUnits="userSpaceOnUse" viewBox="-20 -20 168 168" width="10" x="0" y="0"><path d="M64,0l-20,40l-44,8l32,28l-8,44l40-20l40,20l-8-44l32-28l-44-7.9Z" style="fill:navy;stroke:none;"/></pattern></defs>
<rect width="512" height="512" fill="#8BD8ED"/>

<text style="fill: url(#ellipse-center); font-size: 41.5px; fill-opacity: 1;" x="140.531" y="203.189" id="e1_texte" transform="matrix(12.0365 0 0 12.0365 -1602.5 -2035.8)">K</text></svg>
<svg xmlns="http://www.w3.org/2000/svg" width="512" height="512" viewBox="0 0 512 512" fill="none"  xmlns:xlink="http://www.w3.org/1999/xlink"><rect id="svgEditorBackground" x="0" y="0" width="512" height="512" style="fill: none; stroke: none;"/><defs id="svgEditorDefs"><path id="svgEditorClosePathDefs" style="stroke:black;stroke-width:1px;fill:rosybrown;"/><linearGradient gradientUnits="objectBoundingBox" id="lgrd2-black-white" spreadMethod="pad" x1="0%" x2="100%" y1="0%" y2="100%"><stop offset="0%" stop-color="black"/><stop offset="100%" stop-color="white"/></linearGradient><linearGradient id="lgrd3-fr-h"><stop offset="0%" stop-color="blue"/><stop offset="50%" stop-color="black" stop-opacity="0"/><stop offset="100%" stop-color="red"/></linearGradient><pattern height="10" id="hatch-blue-120" patternTransform="rotate(120) scale(0.4)" patternUnits="userSpaceOnUse" viewBox="0 0 10 10" width="10" x="0" y="0"><line style="stroke:blue;stroke-width:1px;" x1="0" x2="10" y1="5" y2="5"/></pattern><pattern height="10" id="hatch-blue-dash-120" patternTransform="rotate(120) scale(0.4)" patternUnits="userSpaceOnUse" viewBox="0 0 24 10" width="24" x="0" y="0"><line style="stroke:blue;stroke-width:1px;stroke-dasharray:4,4;" x1="0" x2="24" y1="5" y2="5"/></pattern><pattern height="10" id="wheel-darkblue-usr" patternUnits="userSpaceOnUse" viewBox="-20 -20 168 168" width="10" x="0" y="0"><path d="M3.8,80h12.3c1.5,0,2.9,0.9,3.5,2.4c0,0,0,0,0,0c0.6,1.4,0.3,3-0.8,4.1l-8.7,8.7c-1.5,1.5-1.5,3.9,0,5.4l17.3,17.3c1.5,1.5,3.9,1.5,5.4,0l8.7-8.7c1.1-1.1,2.7-1.4,4.1-0.8c0,0,0,0,0,0c1.4,0.6,2.4,2,2.4,3.5v12.3c0,2.1,1.7,3.8,3.8,3.8h24.4c2.1,0,3.8-1.7,3.8-3.8v-12.3c0-1.5,0.9-2.9,2.4-3.5c0,0,0,0,0,0c1.4-0.6,3-0.3,4.1,0.8l8.7,8.7c1.5,1.5,3.9,1.5,5.4,0l17.3-17.3c1.5-1.5,1.5-3.9,0-5.4l-8.7-8.7c-1.1-1.1-1.4-2.7-0.8-4.1c0,0,0,0,0,0c0.6-1.4,2-2.4,3.5-2.4h12.3c2.1,0,3.8-1.7,3.8-3.8v-24.4c0-2.1-1.7-3.8-3.8-3.8h-12.3c-1.5,0-2.9-0.9-3.5-2.4c0,0,0,0,0,0c-0.6-1.4-0.3-3,0.8-4.1l8.7-8.7c1.5-1.5,1.5-3.9,0-5.4l-17.3-17.3c-1.5-1.5-3.9-1.5-5.4,0l-8.7,8.7c-1.1,1.1-2.7,1.4-4.1,0.8c0,0,0,0,0,0c-1.4-0.6-2.4-2-2.4-3.5v-12.3c0-2.1-1.7-3.8-3.8-3.8h-24.4c-2.1,0-3.8,1.7-3.8,3.8v12.3c0,1.5-0.9,2.9-2.4,3.5c0,0,0,0,0,0c-1.4,0.6-3,0.3-4.1-0.8l-8.7-8.7c-1.5-1.5-3.9-1.5-5.4,0l-17.3,17.3c-1.5,1.5-1.5,3.9,0,5.4l8.7,8.7c1.1,1.1,1.4,2.7,0.8,4.1c0,0,0,0,0,0c-0.6,1.4-2,2.4-3.5,2.4h-12.3c-2.1,0-3.8,1.7-3.8,3.8v24.4c0,2.1,1.7,3.8,3.8,3.8ZM64,32c17.7,0,32,14.3,32,32s-14.3,32-32,32s-32-14.3-32-32s14.3-32,32-32Z" style="fill:darkblue;stroke:none;"/><path d="M72,64c0,4.4-3.6,8-8,8s-8-3.6-8-8c0-4.4,3.6-8,8-8s8,3.6,8,8Z" style="fill:darkblue;stroke:none;"/></pattern><pattern height="16" id="screw-20-16" patternContentUnits="userSpaceOnUse" patternUnits="userSpaceOnUse" preserveAspectRatio="xMinYMin meet" viewBox="0 0 20 16" width="20" x="0" y="0"><rect height="16" style="fill:#DFDBE5;stroke:none;" width="20" x="0" y="0"/><path d="M0,0C2.6,0.2,5,1.1,7,2.5A13.9,13.9,0,0,1,15,0h4c0.3,0,0.7,0,1,0v2A12,12,0,0,0,7.2,12h5.1A7,7,0,0,1,20,7.1V14a5,5,0,0,0,-3-4.6A5,5,0,0,0,14,14H0V7.1c0.9,0.1,1.7,0.4,2.4,0.8c0.8-1.5,1.8-2.9,3-4.1C3.8,2.8,2,2.2,0,2v-2Z" fill-rule="evenodd" style="fill:#9C92AC;fill-opacity:0.4;"/></pattern><pattern height="12" id="charlie-p" patternContentUnits="userSpaceOnUse" patternUnits="userSpaceOnUse" preserveAspectRatio="xMinYMin meet" viewBox="0 0 20 12" width="20" x="0" y="0"><rect height="12" style="fill:#DFDBE5;stroke:none;" width="20" x="0" y="0"/><path d="M9.8 12L0 2.2V.8l10 10 10-10v1.4L10.2 12h-.4zm-4 0L0 6.2V4.8L7.2 12H5.8zm8.4 0L20 6.2V4.8L12.8 12h1.4zM9.8 0l.2.2.2-.2h-.4zm-4 0L10 4.2 14.2 0h-1.4L10 2.8 7.2 0H5.8z" style="fill:#9C92AC;fill-opacity:0.4;"/></pattern><pattern height="40" id="parquet-p" patternContentUnits="userSpaceOnUse" patternUnits="userSpaceOnUse" preserveAspectRatio="xMinYMin meet" viewBox="0 0 40 40" width="40" x="0" y="0"><rect height="40" style="fill:#DFDBE5;stroke:none;" width="40" x="0" y="0"/><path d="M20 20.5V18H0v-2h20v-2H0v-2h20v-2H0V8h20V6H0V4h20V2H0V0h22v20h2V0h2v20h2V0h2v20h2V0h2v20h2V0h2v20h2v2H20v-1.5zM0 20h2v20H0V20zm4 0h2v20H4V20zm4 0h2v20H8V20zm4 0h2v20h-2V20zm4 0h2v20h-2V20zm4 4h20v2H20v-2zm0 4h20v2H20v-2zm0 4h20v2H20v-2zm0 4h20v2H20v-2z" fill-rule="evenodd" style="fill:#9C92AC;fill-opacity:0.4;"/></pattern><pattern height="10" id="star-navy-usr" patternUnits="userSpaceOnUse" viewBox="-20 -20 168 168" width="10" x="0" y="0"><path d="M64,0l-20,40l-44,8l32,28l-8,44l40-20l40,20l-8-44l32-28l-44-7.9Z" style="fill:navy;stroke:none;"/></pattern><pattern height="10" id="hatch-red-dash-120" patternTransform="rotate(120) scale(0.4)" patternUnits="userSpaceOnUse" viewBox="0 0 24 10" width="24" x="0" y="0"><line style="stroke:red;stroke-width:1px;stroke-dasharray:4,4;" x1="0" x2="24" y1="5" y2="5"/></pattern><pattern height="10" id="hatch-red-45" patternTransform="rotate(45) scale(0.4)" patternUnits="userSpaceOnUse" viewBox="0 0 10 10" width="10" x="0" y="0"><line style="stroke:red;stroke-width:1px;" x1="0" x2="10" y1="5" y2="5"/></pattern><pattern height="10" id="sun-gold-usr" patternUnits="userSpaceOnUse" viewBox="-20 -20 168 168" width="10" x="0" y="0" patternTransform="rotate(43.9444) scale(0.716003 0.716003)"><path d="M72,16.7v-8.7c0-4.4-3.6-8-8-8s-8,3.6-8,8v8.7c2.6-0.4,5.3-0.7,8-0.7s5.4,0.2,8,0.7Z" style="fill:gold;stroke:none;"/><path d="M18.7,109.3c3.1,3.1,8.2,3.1,11.3,0l6.1-6.1c-4.4-3.1-8.2-6.9-11.3-11.3l-6.1,6.1c-3.1,3.1-3.1,8.2,0,11.3Z" style="fill:gold;stroke:none;"/><path d="M56,111.3v8.7c0,4.4,3.6,8,8,8s8-3.6,8-8v-8.7c-2.6,0.4-5.3,0.7-8,0.7s-5.4-0.2-8-0.7Z" style="fill:gold;stroke:none;"/><path d="M36.2,24.9l-6.1-6.1c-3.1-3.1-8.2-3.1-11.3,0s-3.1,8.2,0,11.3l6.1,6.1c3.1-4.4,6.9-8.2,11.3-11.3Z" style="fill:gold;stroke:none;"/><path d="M8,72h8.7c-0.4-2.6-0.7-5.3-0.7-8s0.2-5.4,0.7-8h-8.7c-4.4,0-8,3.6-8,8s3.6,8,8,8Z" style="fill:gold;stroke:none;"/><path d="M120,56h-8.7c0.4,2.6,0.7,5.3,0.7,8s-0.2,5.4-0.7,8h8.7c4.4,0,8-3.6,8-8s-3.6-8-8-8Z" style="fill:gold;stroke:none;"/><path d="M109.3,18.7c-3.1-3.1-8.2-3.1-11.3,0l-6.1,6.1c4.4,3.1,8.2,6.9,11.3,11.3l6.1-6.1c3.1-3.1,3.1-8.2,0-11.3Z" style="fill:gold;stroke:none;"/><path d="M109.3,109.3c3.1-3.1,3.1-8.2,0-11.3l-6.1-6.1c-3.1,4.4-6.9,8.2-11.3,11.3l6.1,6.1c3.1,3.1,8.2,3.1,11.3,0Z" style="fill:gold;stroke:none;"/><path d="M104,64c0,22.1-17.9,40-40,40s-40-17.9-40-40c0-22.1,17.9-40,40-40s40,17.9,40,40Z" style="fill:gold;stroke:none;"/></pattern><pattern height="49" id="hexa-p" patternContentUnits="userSpaceOnUse" patternUnits="userSpaceOnUse" preserveAspectRatio="xMinYMin meet" viewBox="0 0 28 49" width="28" x="0" y="0"><rect height="49" style="fill:#DFDBE5;stroke:none;" width="28" x="0" y="0"/><path d="M14,9.3l13,7.5v15l-13,7.5L1,31.8v-15l13-7.5ZM3,17.9v12.7l11,6.3l11-6.4V17.9l-11-6.3L3,17.9ZM0,15l13-7.5V0h-2v6.4L0,12.7v2.3Zm0,18.5L13,41v8h-2v-6.9L0,35.8v-2.3ZM15,0v7.5L28,15H28v-2.3h0L17,6.4V0h-2Zm0,49v-8l13-7.5H28v2.3h0L17,42.2V49h-2Z" fill-rule="nonzero" style="fill:#9C92AC;fill-opacity:0.4;"/></pattern><pattern height="10" id="mac-maroon-usr" patternUnits="userSpaceOnUse" viewBox="-20 -20 168 168" width="10" x="0" y="0"><path d="M120,72h-112c-4.4,0-8,3.6-8,8s3.6,8,8,8h112c4.4,0,8-3.6,8-8s-3.6-8-8-8Z" style="fill:maroon;stroke:none;"/><path d="M17.8,120h92.4c5.4,0,9.8-4.4,9.8-9.8v-14.2h-112v14.2c0,5.4,4.4,9.8,9.8,9.8Z" style="fill:darkgoldenrod;stroke:none;"/><path d="M64,16c-30.9,0-56,21.5-56,48h112c0-26.5-25.1-48-56-48ZM36,56c-2.2,0-4-1.8-4-4s1.8-4,4-4s4,1.8,4,4s-1.8,4-4,4ZM52,40c-2.2,0-4-1.8-4-4s1.8-4,4-4s4,1.8,4,4s-1.8,4-4,4ZM76,40c-2.2,0-4-1.8-4-4s1.8-4,4-4s4,1.8,4,4s-1.8,4-4,4ZM92,56c-2.2,0-4-1.8-4-4s1.8-4,4-4s4,1.8,4,4s-1.8,4-4,4Z" style="fill:darkgoldenrod;stroke:none;"/></pattern><pattern height="10" id="house-sienna-usr" patternUnits="userSpaceOnUse" viewBox="-20 -20 168 168" width="10" x="0" y="0"><path d="M9.8,128h108.4c5.4,0,9.8-4.4,9.8-9.8v-84.4c0-5.4-4.4-9.8-9.8-9.8h-46.2v-14.2c0-5.4-4.4-9.8-9.8-9.8h-52.4c-5.4,0-9.8,4.4-9.8,9.8v108.4c0,5.4,4.4,9.8,9.8,9.8ZM104,40h8v16h-8v-16ZM104,64h8v16h-8v-16ZM88,40h8v16h-8v-16ZM88,64h8v16h-8v-16ZM72,40h8v16h-8v-16ZM72,64h8v16h-8v-16ZM48,16h8v16h-8v-16ZM48,40h8v16h-8v-16ZM48,64h8v16h-8v-16ZM32,16h8v16h-8v-16ZM32,40h8v16h-8v-16ZM32,64h8v16h-8v-16ZM16,16h8v16h-8v-16ZM16,40h8v16h-8v-16ZM16,64h8v16h-8v-16Z" style="fill:sienna;stroke:none"/></pattern><pattern height="10" id="hatch-black-dash-45" patternTransform="rotate(45) scale(0.4)" patternUnits="userSpaceOnUse" viewBox="0 0 24 10" width="24" x="0" y="0"><line style="stroke:black;stroke-width:1px;stroke-dasharray:4,4;" x1="0" x2="24" y1="5" y2="5"/></pattern><pattern height="100%" id="ellipse-center" patternContentUnits="objectBoundingBox" patternUnits="objectBoundingBox" preserveAspectRatio="xMinYMin meet" width="100%" x="0%" y="0%"><circle cx="0.5" cy="0.5" r="0.5" style="fill:white;fill-opacity:0.1;stroke:none;"/><circle cx="0.5" cy="0.5" r="0.4" style="fill:azure;fill-opacity:0.2;stroke:none;"/><circle cx="0.5" cy="0.5" r="0.3" style="fill:aquamarine;fill-opacity:0.4;stroke:none;"/><circle cx="0.5" cy="0.5" r="0.2" style="fill:mediumspringgreen;fill-opacity:0.6;stroke:none;"/><circle cx="0.5" cy="0.5" r="0.1" style="fill:#00FF47;fill-opacity:1;stroke:none;"/></pattern><pattern height="10" id="hatch-black-45" patternTransform="rotate(45) scale(0.4)" patternUnits="userSpaceOnUse" viewBox="0 0 10 10" width="10" x="0" y="0"><line style="stroke:black;stroke-width:1px;" x1="0" x2="10" y1="5" y2="5"/></pattern><pattern height="10" id="hatch-black-dash-120" patternTransform="rotate(120) scale(0.4)" patternUnits="userSpaceOnUse" viewBox="0 0 24 10" width="24" x="0" y="0"><line style="stroke:black;stroke-width:1px;stroke-dasharray:4,4;" x1="0" x2="24" y1="5" y2="5"/></pattern><pattern height="10" id="hatch-blue-45" patternTransform="rotate(45) scale(0.4)" patternUnits="userSpaceOnUse" viewBox="0 0 10 10" width="10" x="0" y="0"><line style="stroke:blue;stroke-width:1px;" x1="0" x2="10" y1="5" y2="5"/></pattern><pattern height="10" id="hatch-green-45" patternTransform="rotate(45) scale(0.4)" patternUnits="userSpaceOnUse" viewBox="0 0 10 10" width="10" x="0" y="0"><line style="stroke:green;stroke-width:1px;" x1="0" x2="10" y1="5" y2="5"/></pattern><pattern height="10" id="hatch-red-dash-45" patternTransform="rotate(45) scale(0.4)" patternUnits="userSpaceOnUse" viewBox="0 0 24 10" width="24" x="0" y="0"><line style="stroke:red;stroke-width:1px;stroke-dasharray:4,4;" x1="0" x2="24" y1="5" y2="5"/></pattern><pattern height="10" id="apple-green-usr" patternUnits="userSpaceOnUse" viewBox="-20 -20 168 168" width="10" x="0" y="0"><path d="M91.4,24c-8.8,0-16.8,3.1-23.1,8.2c2.2-12.9,14.4-25.3,14.5-25.4c1.6-1.6,1.6-4.1,0-5.7c-1.6-1.6-4.1-1.6-5.7,0c-0.7,0.7-15.1,15.3-17,31.5c-6.4-5.4-14.6-8.7-23.6-8.7c-20.2,0-36.6,16.4-36.6,36.6c0,5.4,1.2,10.5,3.3,15.1l14.7,35.8c1.3,3.2,3.2,6.2,5.8,8.7c10.4,10.4,27.3,10.4,37.7,0c0.9-0.9,1.7-1.9,2.5-2.9c0.7,1,1.6,2,2.5,2.9c10.4,10.4,27.3,10.4,37.7,0c2.6-2.6,4.5-5.6,5.8-8.7l0,0l14.7-35.8c2.1-4.6,3.3-9.7,3.3-15.1c0-20.2-16.4-36.6-36.6-36.6ZM64,85.3c-0.1-0.1-0.2-0.2-0.2-0.3c0.1-0.1,0.2-0.2,0.2-0.3v0.6Z" style="fill:green;stroke:none,"/></pattern><pattern height="10" id="meal-steelblue-usr" patternUnits="userSpaceOnUse" viewBox="-20 -20 168 168" width="10" x="0" y="0"><path d="M20,0c-2.2,0-4,1.8-4,4v48c0,2.2,1.8,4,4,4h32c2.2,0,4-1.8,4-4v-48c0-2.2-1.8-4-4-4s-4,1.8-4,4v44h-8v-44c0-2.2-1.8-4-4-4s-4,1.8-4,4v44h-8v-44c0-2.2-1.8-4-4-4Z" style="fill:steelblue;stroke:none;"/><path d="M36,128c6.6,0,12-5.4,12-12v-52h-24v52c0,6.6,5.4,12,12,12Z" style="fill:steelblue;stroke:none;"/><path d="M80,116c0,6.6,5.4,12,12,12s12-5.4,12-12v-36h-24v36Z" style="fill:steelblue;stroke:none;"/><path d="M80 0v72h32c0-72-32-72-32-72z" style="fill:steelblue;stroke:none;"/></pattern><pattern height="64" id="aztek-p" patternContentUnits="userSpaceOnUse" patternUnits="userSpaceOnUse" preserveAspectRatio="xMinYMin meet" viewBox="0 0 32 64" width="32" x="0" y="0"><rect height="64" style="fill:#DFDBE5;stroke:none;" width="32" x="0" y="0"/><path d="M0 28h20V16h-4v8H4V4h28v28h-4V8H8v12h4v-8h12v20H0v-4zm12 8h20v4H16v24H0v-4h12V36zm16 12h-4v12h8v4H20V44h12v12h-4v-8zM0 36h8v20H0v-4h4V40H0v-4z" fill-rule="evenodd" style="fill:#9C92AC;fill-opacity:0.4;"/></pattern><polygon id="svgEditorIconDefs" style="fill:rosybrown;"/><polygon id="svgEditorShapeDefs" style="fill: url(#lgrd2-peachpuff-sienna-h); stroke:aqua; vector-effect: non-scaling-stroke; stroke-width: 1px;"/><linearGradient gradientUnits="objectBoundingBox" id="lgrd2-peachpuff-sienna-h" spreadMethod="pad" x1="0%" x2="100%" y1="0%" y2="0%"><stop offset="0%" style="stop-color:peachpuff;  stop-opacity:1;"/><stop offset="100%" style="stop-color:sienna;  stop-opacity:1"/></linearGradient></defs>
<rect width="512" height="512" fill="#8BD8ED"/>

<text style="font-size: 41.5px; fill-opacity: 1; fill-rule: evenodd; stroke-opacity: 0.78; stroke:black;stroke-width:2px;" x="140.531" y="203.189" id="e1_texte" transform="matrix(12.0365 0 0 12.0365 -1602.5 -2035.8)">K</text></svg>
