<svg xmlns="http://www.w3.org/2000/svg" width="512" height="512" viewBox="0 0 512 512" fill="none"  xmlns:xlink="http://www.w3.org/1999/xlink"><rect id="svgEditorBackground" x="0" y="0" width="512" height="512" style="fill: none; stroke: none;"/><defs id="svgEditorDefs"><path id="svgEditorClosePathDefs" style="stroke:black;stroke-width:1px;fill:rosybrown;"/><linearGradient gradientUnits="objectBoundingBox" id="lgrd2-black-white" spreadMethod="pad" x1="0%" x2="100%" y1="0%" y2="100%"><stop offset="0%" stop-color="black"/><stop offset="100%" stop-color="white"/></linearGradient><linearGradient id="lgrd3-fr-h"><stop offset="0%" stop-color="blue"/><stop offset="50%" stop-color="black" stop-opacity="0"/><stop offset="100%" stop-color="red"/></linearGradient><pattern height="10" id="hatch-blue-120" patternTransform="rotate(120) scale(0.4)" patternUnits="userSpaceOnUse" viewBox="0 0 10 10" width="10" x="0" y="0"><line style="stroke:blue;stroke-width:1px;" x1="0" x2="10" y1="5" y2="5"/></pattern><pattern height="10" id="hatch-blue-dash-120" patternTransform="rotate(120) scale(0.4)" patternUnits="userSpaceOnUse" viewBox="0 0 24 10" width="24" x="0" y="0"><line style="stroke:blue;stroke-width:1px;stroke-dasharray:4,4;" x1="0" x2="24" y1="5" y2="5"/></pattern><pattern height="10" id="wheel-darkblue-usr" patternUnits="userSpaceOnUse" viewBox="-20 -20 168 168" width="10" x="0" y="0"><path d="M3.8,80h12.3c1.5,0,2.9,0.9,3.5,2.4c0,0,0,0,0,0c0.6,1.4,0.3,3-0.8,4.1l-8.7,8.7c-1.5,1.5-1.5,3.9,0,5.4l17.3,17.3c1.5,1.5,3.9,1.5,5.4,0l8.7-8.7c1.1-1.1,2.7-1.4,4.1-0.8c0,0,0,0,0,0c1.4,0.6,2.4,2,2.4,3.5v12.3c0,2.1,1.7,3.8,3.8,3.8h24.4c2.1,0,3.8-1.7,3.8-3.8v-12.3c0-1.5,0.9-2.9,2.4-3.5c0,0,0,0,0,0c1.4-0.6,3-0.3,4.1,0.8l8.7,8.7c1.5,1.5,3.9,1.5,5.4,0l17.3-17.3c1.5-1.5,1.5-3.9,0-5.4l-8.7-8.7c-1.1-1.1-1.4-2.7-0.8-4.1c0,0,0,0,0,0c0.6-1.4,2-2.4,3.5-2.4h12.3c2.1,0,3.8-1.7,3.8-3.8v-24.4c0-2.1-1.7-3.8-3.8-3.8h-12.3c-1.5,0-2.9-0.9-3.5-2.4c0,0,0,0,0,0c-0.6-1.4-0.3-3,0.8-4.1l8.7-8.7c1.5-1.5,1.5-3.9,0-5.4l-17.3-17.3c-1.5-1.5-3.9-1.5-5.4,0l-8.7,8.7c-1.1,1.1-2.7,1.4-4.1,0.8c0,0,0,0,0,0c-1.4-0.6-2.4-2-2.4-3.5v-12.3c0-2.1-1.7-3.8-3.8-3.8h-24.4c-2.1,0-3.8,1.7-3.8,3.8v12.3c0,1.5-0.9,2.9-2.4,3.5c0,0,0,0,0,0c-1.4,0.6-3,0.3-4.1-0.8l-8.7-8.7c-1.5-1.5-3.9-1.5-5.4,0l-17.3,17.3c-1.5,1.5-1.5,3.9,0,5.4l8.7,8.7c1.1,1.1,1.4,2.7,0.8,4.1c0,0,0,0,0,0c-0.6,1.4-2,2.4-3.5,2.4h-12.3c-2.1,0-3.8,1.7-3.8,3.8v24.4c0,2.1,1.7,3.8,3.8,3.8ZM64,32c17.7,0,32,14.3,32,32s-14.3,32-32,32s-32-14.3-32-32s14.3-32,32-32Z" style="fill:darkblue;stroke:none;"/><path d="M72,64c0,4.4-3.6,8-8,8s-8-3.6-8-8c0-4.4,3.6-8,8-8s8,3.6,8,8Z" style="fill:darkblue;stroke:none;"/></pattern><pattern height="100%" id="ellipse-center" patternContentUnits="objectBoundingBox" patternUnits="objectBoundingBox" preserveAspectRatio="xMinYMin meet" width="100%" x="0%" y="0%"><circle cx="0.5" cy="0.5" r="0.5" style="fill:navy;fill-opacity:0.1;stroke:none;"/><circle cx="0.5" cy="0.5" r="0.4" style="fill:navy;fill-opacity:0.2;stroke:none;"/><circle cx="0.5" cy="0.5" r="0.3" style="fill:navy;fill-opacity:0.4;stroke:none;"/><circle cx="0.5" cy="0.5" r="0.2" style="fill:navy;fill-opacity:0.6;stroke:none;"/><circle cx="0.5" cy="0.5" r="0.1" style="fill:navy;fill-opacity:1;stroke:none;"/></pattern><pattern height="16" id="screw-20-16" patternContentUnits="userSpaceOnUse" patternUnits="userSpaceOnUse" preserveAspectRatio="xMinYMin meet" viewBox="0 0 20 16" width="20" x="0" y="0"><rect height="16" style="fill:#DFDBE5;stroke:none;" width="20" x="0" y="0"/><path d="M0,0C2.6,0.2,5,1.1,7,2.5A13.9,13.9,0,0,1,15,0h4c0.3,0,0.7,0,1,0v2A12,12,0,0,0,7.2,12h5.1A7,7,0,0,1,20,7.1V14a5,5,0,0,0,-3-4.6A5,5,0,0,0,14,14H0V7.1c0.9,0.1,1.7,0.4,2.4,0.8c0.8-1.5,1.8-2.9,3-4.1C3.8,2.8,2,2.2,0,2v-2Z" fill-rule="evenodd" style="fill:#9C92AC;fill-opacity:0.4;"/></pattern><pattern height="12" id="charlie-p" patternContentUnits="userSpaceOnUse" patternUnits="userSpaceOnUse" preserveAspectRatio="xMinYMin meet" viewBox="0 0 20 12" width="20" x="0" y="0"><rect height="12" style="fill:#DFDBE5;stroke:none;" width="20" x="0" y="0"/><path d="M9.8 12L0 2.2V.8l10 10 10-10v1.4L10.2 12h-.4zm-4 0L0 6.2V4.8L7.2 12H5.8zm8.4 0L20 6.2V4.8L12.8 12h1.4zM9.8 0l.2.2.2-.2h-.4zm-4 0L10 4.2 14.2 0h-1.4L10 2.8 7.2 0H5.8z" style="fill:#9C92AC;fill-opacity:0.4;"/></pattern><pattern height="40" id="parquet-p" patternContentUnits="userSpaceOnUse" patternUnits="userSpaceOnUse" preserveAspectRatio="xMinYMin meet" viewBox="0 0 40 40" width="40" x="0" y="0"><rect height="40" style="fill:#DFDBE5;stroke:none;" width="40" x="0" y="0"/><path d="M20 20.5V18H0v-2h20v-2H0v-2h20v-2H0V8h20V6H0V4h20V2H0V0h22v20h2V0h2v20h2V0h2v20h2V0h2v20h2V0h2v20h2v2H20v-1.5zM0 20h2v20H0V20zm4 0h2v20H4V20zm4 0h2v20H8V20zm4 0h2v20h-2V20zm4 0h2v20h-2V20zm4 4h20v2H20v-2zm0 4h20v2H20v-2zm0 4h20v2H20v-2zm0 4h20v2H20v-2z" fill-rule="evenodd" style="fill:#9C92AC;fill-opacity:0.4;"/></pattern><pattern height="10" id="star-navy-usr" patternUnits="userSpaceOnUse" viewBox="-20 -20 168 168" width="10" x="0" y="0"><path d="M64,0l-20,40l-44,8l32,28l-8,44l40-20l40,20l-8-44l32-28l-44-7.9Z" style="fill:navy;stroke:none;"/></pattern></defs>
<rect width="512" height="512" fill="#8BD8ED"/>

<text style="fill: url(#ellipse-center); font-size: 41.5px; fill-opacity: 1;" x="140.531" y="203.189" id="e1_texte" transform="matrix(12.0365 0 0 12.0365 -1602.5 -2035.8)">K</text></svg>
